<svg xmlns="http://www.w3.org/2000/svg" viewBox="0 0 1254 1254" width="1254" height="1254">
  <g transform="translate(0.000000,1254.000000) scale(0.100000,-0.100000)" fill="#E8721C" stroke="none">
    <path d="M5835 12359 c-888 -53 -1807 -315 -2557 -732 -1097 -609 -1887 -1421
-2433 -2502 -376 -742 -586 -1513 -646 -2364 -15 -218 -6 -806 16 -1006 172
-1576 869 -2905 2064 -3932 384 -331 804 -605 1273 -833 1209 -587 2549 -768
3838 -519 315 61 570 136 890 259 181 70 789 327 802 339 19 18 -72 115 -474
504 -239 232 -470 461 -512 509 -43 48 -98 101 -124 118 -40 27 -53 31 -92 27
-25 -3 -81 -21 -126 -40 -418 -179 -1085 -290 -1654 -274 -437 12 -789 74
-1207 212 -890 294 -1675 860 -2237 1614 -467 627 -752 1389 -827 2211 -16
174 -16 586 0 760 36 389 121 780 246 1124 350 964 1057 1798 1980 2333 135
78 391 201 555 266 609 240 1244 340 1895 297 488 -33 925 -130 1343 -299 770
-311 1415 -802 1909 -1452 292 -385 534 -853 687 -1328 314 -978 279 -2028
-101 -2991 -75 -189 -233 -509 -328 -661 -74 -119 -80 -147 -38 -210 15 -22
76 -82 137 -132 61 -50 185 -161 276 -248 163 -154 428 -398 606 -557 l91 -81
55 57 c31 31 78 91 106 132 76 116 261 431 356 606 590 1096 822 2409 645
3664 -134 957 -490 1848 -1055 2640 -210 295 -392 507 -660 770 -1207 1183
-2953 1822 -4699 1719z M6141 9940 c-36 -17 -101 -53 -145 -79 -45 -27 -200
-113 -346 -191 -146 -79 -458 -249 -695 -378 -681 -372 -826 -451 -1055 -572
-118 -62 -336 -179 -485 -260 -148 -81 -299 -163 -335 -182 -77 -41 -96 -74
-64 -109 10 -12 60 -41 109 -64 90 -42 248 -127 1010 -537 220 -118 558 -300
750 -403 193 -103 501 -271 685 -373 469 -259 632 -342 673 -342 85 0 248 75
537 250 107 64 359 205 560 312 201 107 491 263 645 345 154 83 433 230 620
328 187 98 396 208 465 245 69 38 182 96 252 130 181 88 208 119 151 172 -16
13 -318 183 -673 375 -355 193 -1032 561 -1505 819 -473 257 -893 485 -933
506 -92 48 -133 49 -221 8z M9530 7811 c-103 -38 -211 -94 -400 -206 -88 -52
-258 -147 -378 -211 -119 -64 -428 -230 -687 -369 -258 -138 -585 -312 -725
-385 -140 -73 -352 -185 -470 -248 -118 -64 -264 -141 -325 -172 -81 -40 -116
-64 -132 -89 l-23 -34 0 -1753 c0 -1580 2 -1754 16 -1768 24 -24 75 -19 161
15 119 47 595 279 621 302 36 33 28 59 -43 137 -36 39 -70 82 -75 96 -20 51
21 93 165 174 33 19 236 146 450 284 215 137 541 344 725 461 184 117 385 247
445 290 107 76 234 145 265 145 36 0 122 -53 210 -130 159 -138 191 -141 247
-30 69 136 65 37 64 1858 0 904 -3 1648 -7 1653 -8 13 -22 11 -104 -20z M9054
4091 c-43 -21 -126 -72 -184 -113 -92 -65 -371 -239 -1137 -711 -222 -137
-244 -158 -221 -202 7 -12 95 -101 195 -196 262 -251 1033 -990 1203 -1154
362 -349 779 -753 1174 -1135 236 -228 438 -420 450 -427 47 -27 95 -13 336
102 205 97 792 363 1239 561 332 147 354 161 329 207 -14 26 -524 523 -1053
1027 -181 173 -451 432 -600 576 -148 143 -430 411 -626 595 -195 184 -480
453 -633 599 -153 145 -292 274 -309 287 -43 32 -71 29 -163 -16z"/>
  </g>
</svg>
